<svg id="Layer_2" data-name="Layer 2" xmlns="http://www.w3.org/2000/svg" viewBox="0 0 734.326 688.552" style="width: 100%; height: 100%;">
  <g id="Layer_1-2" data-name="Layer 1">
    <g>
      <g>
        <g>
          <polygon points="543.66 649.249 542.812 652.331 533.079 687.802 521.134 687.802 530.872 652.331 532.553 646.199 543.66 649.249" fill="#fff" stroke="#b7b7b7" stroke-linecap="round" stroke-linejoin="round" stroke-width="1.5"></polygon>
          <polygon points="694.975 687.802 683.03 687.802 673.296 652.331 672.449 649.249 683.555 646.199 685.237 652.331 694.975 687.802" fill="#fff" stroke="#b7b7b7" stroke-linecap="round" stroke-linejoin="round" stroke-width="1.5"></polygon>
        </g>
        <g>
          <rect x="512.373" y="506.223" width="191.363" height="144.22" transform="translate(1216.109 1156.666) rotate(-180)" fill="#fff" stroke="#b7b7b7" stroke-linecap="round" stroke-linejoin="round" stroke-width="1.5"></rect>
          <rect x="512.373" y="578.333" width="191.363" height="72.11" transform="translate(1216.109 1228.776) rotate(-180)" fill="#fff" stroke="#b7b7b7" stroke-linecap="round" stroke-linejoin="round" stroke-width="1.5"></rect>
          <circle cx="608.054" cy="544.618" r="8.606" fill="#fff" stroke="#b7b7b7" stroke-linecap="round" stroke-linejoin="round" stroke-width="1.5"></circle>
          <circle cx="608.054" cy="615.064" r="8.606" fill="#fff" stroke="#b7b7b7" stroke-linecap="round" stroke-linejoin="round" stroke-width="1.5"></circle>
          <g>
            <rect x="567.898" y="469.662" width="15.01" height="57.671" transform="translate(76.905 1073.901) rotate(-90)" fill="#fff" stroke="#b7b7b7" stroke-linecap="round" stroke-linejoin="round" stroke-width="1.5"></rect>
            <rect x="579.809" y="457.773" width="8.769" height="57.671" transform="translate(97.586 1070.802) rotate(-90)" fill="#fff" stroke="#b7b7b7" stroke-linecap="round" stroke-linejoin="round" stroke-width="1.5"></rect>
            <rect x="580.116" y="439.102" width="8.769" height="57.671" transform="translate(352.784 1179.917) rotate(-110.652)" fill="#fff" stroke="#b7b7b7" stroke-linecap="round" stroke-linejoin="round" stroke-width="1.5"></rect>
          </g>
          <path d="m648.576,435.585h0c0-1.248-1.011-2.259-2.259-2.259h-14.227c-1.319,0-2.388,1.069-2.388,2.388h0c0,6.894-3.303,13.297-8.732,17.545-7.173,5.612-11.683,14.47-11.315,24.367.567,15.219,12.866,27.639,28.078,28.345,16.934.786,30.91-12.711,30.91-29.472,0-9.42-4.417-17.805-11.291-23.205-5.465-4.293-8.777-10.759-8.777-17.709Z" fill="#fff" stroke="#b7b7b7" stroke-linecap="round" stroke-linejoin="round" stroke-width="1.5"></path>
        </g>
      </g>
      <g>
        <g>
          <rect x="486.532" y="46.247" width="205.738" height="254.444" transform="translate(1178.803 346.939) rotate(-180)" fill="#fff" stroke="#b7b7b7" stroke-linecap="round" stroke-linejoin="round" stroke-width="1.5"></rect>
          <line x1="589.401" y1="300.692" x2="589.401" y2="46.247" fill="#fff" stroke="#b7b7b7" stroke-linecap="round" stroke-linejoin="round" stroke-width="1.5"></line>
          <line x1="486.532" y1="221.465" x2="690.321" y2="221.465" fill="#fff" stroke="#b7b7b7" stroke-linecap="round" stroke-linejoin="round" stroke-width="1.5"></line>
        </g>
        <line x1="624.589" y1="239.014" x2="665.319" y2="145.491" fill="#fff" stroke="#b7b7b7" stroke-linecap="round" stroke-linejoin="round" stroke-width="1.5"></line>
        <line x1="640.32" y1="142.497" x2="660.538" y2="95.862" fill="#fff" stroke="#b7b7b7" stroke-linecap="round" stroke-linejoin="round" stroke-width="1.5"></line>
      </g>
      <line x1="733.576" y1="687.802" x2=".75" y2="687.802" fill="none" stroke="#000" stroke-linecap="round" stroke-linejoin="round" stroke-width="1.5"></line>
      <g>
        <rect id="a_12_a" x="244.63" y="22.146" width="360.229" height="409.874" transform="translate(849.49 454.166) rotate(-180)" fill="#90ffc9" stroke="#90ffc9" stroke-linecap="round" stroke-linejoin="round" stroke-width="1.5"></rect>
        <rect id="a_12_a-2" data-name="a_12_a" x="235.6" y="7.75" width="378.291" height="13.484" transform="translate(849.49 28.984) rotate(-180)" fill="#90ffc9" stroke="#90ffc9" stroke-linecap="round" stroke-linejoin="round" stroke-width="1.5"></rect>
        <rect id="a_12_a-3" data-name="a_12_a" x="244.63" y="12.146" width="360.229" height="409.874" transform="translate(849.49 434.166) rotate(-180)" fill="#fff" stroke="#90ffc9" stroke-linecap="round" stroke-linejoin="round" stroke-width="1.5"></rect>
        <rect id="a_12_a-4" data-name="a_12_a" x="235.6" y=".75" width="378.291" height="13.484" transform="translate(849.49 14.984) rotate(-180)" fill="#fff" stroke="#90ffc9" stroke-linecap="round" stroke-linejoin="round" stroke-width="1.5"></rect>
        <line id="a_12_st" x1="424.745" y1="422.02" x2="424.745" y2="475.198" fill="none" stroke="#90ffc9" stroke-linecap="round" stroke-linejoin="round" stroke-width="1.5"></line>
        <circle id="a_12_a-5" data-name="a_12_a" cx="424.745" cy="475.198" r="6.181" fill="#fff" stroke="#90ffc9" stroke-linecap="round" stroke-linejoin="round" stroke-width="1.5"></circle>
        <g>
          <rect x="266.793" y="226.593" width="315.903" height="171.257" fill="none" stroke="#90ffc9" stroke-linecap="round" stroke-linejoin="round" stroke-width="1.5"></rect>
          <g>
            <line x1="297.533" y1="268.404" x2="551.956" y2="268.404" fill="none" stroke="#90ffc9" stroke-linecap="round" stroke-linejoin="round" stroke-width="1.5"></line>
            <line x1="297.533" y1="349.748" x2="551.956" y2="349.748" fill="none" stroke="#90ffc9" stroke-linecap="round" stroke-linejoin="round" stroke-width="1.5"></line>
            <line x1="297.533" y1="309.076" x2="551.956" y2="309.076" fill="none" stroke="#90ffc9" stroke-linecap="round" stroke-linejoin="round" stroke-width="1.5"></line>
          </g>
          <g>
            <g>
              <circle cx="306.908" cy="332.609" r="6.54" stroke="#000" stroke-linecap="round" stroke-linejoin="round" stroke-width="1.5"></circle>
              <circle cx="356.942" cy="264.855" r="6.54" stroke="#000" stroke-linecap="round" stroke-linejoin="round" stroke-width="1.5"></circle>
              <circle cx="402.829" cy="359.533" r="6.54" stroke="#000" stroke-linecap="round" stroke-linejoin="round" stroke-width="1.5"></circle>
              <circle cx="457.992" cy="295.983" r="6.54" stroke="#000" stroke-linecap="round" stroke-linejoin="round" stroke-width="1.5"></circle>
              <circle cx="504.593" cy="327.74" r="6.54" stroke="#000" stroke-linecap="round" stroke-linejoin="round" stroke-width="1.5"></circle>
              <circle cx="543.508" cy="289.442" r="6.54" stroke="#000" stroke-linecap="round" stroke-linejoin="round" stroke-width="1.5"></circle>
            </g>
            <polyline points="306.908 332.609 356.942 264.855 402.829 359.533 457.992 295.983 504.593 327.74 543.508 289.442" fill="none" stroke="#000" stroke-linecap="round" stroke-linejoin="round" stroke-width="1.5"></polyline>
          </g>
        </g>
        <g>
          <g id="a_13_gr">
            <path id="a_13_gr_a" d="m430.627,63.661v.005l-.002-.003c-25.863,0-47.289,19.014-51.057,43.831l21.299,3.263c2.2-14.462,14.687-25.546,29.758-25.546l.002-.003h0c16.629,0,30.101,13.481,30.101,30.101,0,10.333-5.197,19.436-13.122,24.859h-.002c-.036.024-.073.055-.115.073l12.074,17.859h.006c1.179-.796,2.321-1.647,3.427-2.54v-.002c11.763-9.461,19.288-23.97,19.288-40.25,0-28.522-23.125-51.647-51.657-51.647Z" fill="#fff" stroke="#000" stroke-linecap="round" stroke-linejoin="round" stroke-width="1.5"></path>
            <path id="a_13_gr_bl" d="m459.563,158.1c-8.258,5.603-18.218,8.866-28.937,8.866-16,0-30.299-7.28-39.766-18.704l16.589-13.745c5.524,6.66,13.855,10.895,23.177,10.895,6.247,0,12.056-1.908,16.863-5.171l12.074,17.859Z" fill="#90ffc9" stroke="#000" stroke-linecap="round" stroke-linejoin="round" stroke-width="1.5"></path>
            <path id="a_13_gr_a-2" data-name="a_13_gr_a" d="m407.449,134.516l-16.589,13.745c-7.42-8.939-11.88-20.424-11.88-32.954,0-2.655.201-5.268.589-7.815l21.299,3.263c-.225,1.483-.34,3.002-.34,4.551,0,7.304,2.595,14.001,6.921,19.208Z" stroke="#000" stroke-linecap="round" stroke-linejoin="round" stroke-width="1.5"></path>
          </g>
          <polyline points="457.669 82.336 473.719 69.109 551.759 69.109" fill="none" stroke="#000" stroke-linecap="round" stroke-linejoin="round" stroke-width="1.5"></polyline>
          <rect x="505.688" y="60.638" width="65.655" height="16.942" transform="translate(1077.031 138.219) rotate(180)" fill="#fff" stroke="#000" stroke-linecap="round" stroke-linejoin="round" stroke-width="1.5"></rect>
          <polyline points="304.76 139.803 366.127 139.803 388.006 125.461" fill="none" stroke="#000" stroke-linecap="round" stroke-linejoin="round" stroke-width="1.5"></polyline>
          <rect x="271.932" y="131.332" width="65.655" height="16.942" stroke="#000" stroke-linecap="round" stroke-linejoin="round" stroke-width="1.5"></rect>
          <polyline points="432.949 162.591 448.999 179.533 508.446 179.533" fill="none" stroke="#000" stroke-linecap="round" stroke-linejoin="round" stroke-width="1.5"></polyline>
          <rect x="492.23" y="171.062" width="65.655" height="16.942" fill="#90ffc9" stroke="#000" stroke-linecap="round" stroke-linejoin="round" stroke-width="1.5"></rect>
        </g>
      </g>
      <g>
        <path id="l" d="m77.51,687.637l-67.829-52.73,21.709-26.079,41.91,26.076s-10.055,16.734,1.195,27.08c17.75,16.334,3.015,25.654,3.015,25.654Z" fill="#fff" stroke="#000" stroke-linecap="round" stroke-linejoin="round" stroke-width="1.5"></path>
        <path id="l-2" data-name="l" d="m219.14,499.515l-140.3,147.46-59.93-45.09,133.72-144.04-26.529-161.678,74.104-.9,31.205,155.438c2.67,17.17-1.8,34.95-12.27,48.81Z" fill="#90ffc9"></path>
        <g id="l-3" data-name="l">
          <path d="m36.1,613.821l-3.633-3.435,126.832-134.137c7.084-9.29,9.112-16.061,7.712-25.761l-13.227-50.346,4.836-1.271,13.317,50.753c1.885,12.803-1.95,20.882-8.747,29.766l-.169.198-126.922,134.233Z" fill="#fdfdfd"></path>
        </g>
        <path id="st" d="m152.605,457.856L18.997,601.766l59.757,45.322,140.312-147.476c10.552-13.913,15.042-31.785,12.318-49.034l-31.18-155.312" fill="none" stroke="#000" stroke-linecap="round" stroke-linejoin="round" stroke-width="1.5"></path>
        <path id="l-4" data-name="l" d="m97.888,653.342l-.779,33.913h78.98s5.238-16.694-19.232-18.733c-15.503-1.292-11.166-16.795-11.166-16.795" fill="#fff" stroke="#000" stroke-linecap="round" stroke-linejoin="round" stroke-width="1.5"></path>
        <polyline id="l-5" data-name="l" points="157.864 295.162 160.823 658.858 85.688 658.952 79.805 295.517" fill="#90ffc9"></polyline>
        <g id="l-6" data-name="l">
          <rect x="96.876" y="295.903" width="5" height="362.222" transform="translate(-9.199 2.009) rotate(-1.107)" fill="#fff"></rect>
        </g>
        <polyline id="st-2" data-name="st" points="159.344 359.311 160.823 658.858 85.688 658.952 79.805 295.517 200.205 295.267" fill="none" stroke="#000" stroke-linecap="round" stroke-linejoin="round" stroke-width="1.5"></polyline>
        <path id="h_6_h" d="m116.371,86.174c6.999,47.801,12.055,41.485,28.178,41.751,11.967.197,25.113-15.252,31.666-29.75,1.334-2.951,3.003-5.737,3.661-8.482.465-1.938.743-3.79.807-5.509,1.042-28.055-2.887-26.571-32.529-26.728-33.17-.175-34.548,9.828-31.782,28.718Z" stroke="#000" stroke-linecap="round" stroke-linejoin="round" stroke-width="1.5"></path>
        <path id="h_6_sk" d="m125.506,111.332c-4.483-.069-8.052-3.826-7.972-8.39.076-4.368,3.469-7.884,7.689-8.118,3.344-14.685,15.473-25.728,30.864-25.489,11.571.179,15.685,6.491,21.153,15.94,2.894,5,2.056,34.323-1.846,40.615-2.61,4.207-7.281,7.03-14.81,8.268l-.365,17.081s.986,16.491-16.937,15.624c-18.18-.879-17.999-16.849-17.999-16.849,0,0,.527-36.479.38-38.687-.052,0-.103.006-.155.006Z" fill="#fffdfd" stroke="#000" stroke-linecap="round" stroke-linejoin="round" stroke-width="1.5"></path>
        <path id="h_6_sh" d="m145.314,131.055l14.944,16.975.326-13.873s-4.881.441-9.379-.854-5.89-2.248-5.89-2.248Z" stroke="#000" stroke-linecap="round" stroke-linejoin="round" stroke-width="1.5"></path>
        <path id="h_6_h-2" data-name="h_6_h" d="m126.085,106.921c-.482-.029-.868-.409-.906-.891l-1.104-14.17-.633-24.527s51.064-5.814,51.986-1.58c.371,1.702,4.175,13.599,4.116,16.078-.051,2.118.328,5.584-.051,7.382-.229,1.087-.843,4.055-1.729,2.09-1.601-3.551-2.339-8.979-7.105-9.49-4.993-.536-12.769-.89-19.982-1.028-5.615-.107-10.547-1.241-11.347,7.193-.324,3.418-1.968,8.082-8.37,10.065l-.308,8.163c-.02.543-.483.962-1.025.929l-3.541-.215Z" stroke="#000" stroke-linecap="round" stroke-linejoin="round" stroke-width="1.5"></path>
        <path id="h_6_st" d="m124.314,94.927l.865,11.104c.038.481.424.861.906.891l3.541.215c.542.033,1.005-.387,1.025-.929l.308-8.163c6.402-1.983,8.045-6.648,8.37-10.065.801-8.434,5.732-7.3,11.347-7.193,7.213.138,14.99.492,19.982,1.028,4.765.512,5.834,5.809,7.105,9.49.117.338.312,1.078.798,1.186" fill="none" stroke="#000" stroke-linecap="round" stroke-linejoin="round" stroke-width="1.5"></path>
        <g id="e_1_eye">
          <path d="m153.907,98.278l.014-.141c.008-.207-.035-.399-.129-.578-.06-.186-.164-.347-.31-.483-.136-.146-.297-.25-.483-.31-.179-.094-.371-.137-.578-.129l-.399.054c-.254.071-.475.2-.662.386l-.235.304c-.136.234-.204.486-.205.757l-.014.141c-.008.207.035.399.129.578.06.186.164.347.31.483.136.146.297.25.483.31.179.094.371.137.578.129l.399-.054c.254-.071.475-.2.662-.386l.235-.304c.136-.234.204-.486.205-.757h0Z"></path>
        </g>
        <g id="e_1_eye-2" data-name="e_1_eye">
          <path d="m170.796,99.389l.014-.141c.008-.207-.035-.399-.129-.578-.06-.186-.164-.347-.31-.483-.136-.146-.297-.25-.483-.31-.179-.094-.371-.137-.578-.129l-.399.054c-.254.071-.475.2-.662.386l-.235.304c-.136.234-.204.486-.205.757l-.014.141c-.008.207.035.399.129.578.06.186.164.347.31.483.136.146.297.25.483.31.179.094.371.137.578.129l.399-.054c.254-.071.475-.2.662-.386l.235-.304c.136-.234.204-.486.205-.757h0Z"></path>
        </g>
        <path id="e_1_st" d="m164.331,105.753l.844,3.993c.156.737-.484,1.399-1.222,1.263l-3.507-.644" fill="none" stroke="#000" stroke-linecap="round" stroke-linejoin="round" stroke-width="1.5"></path>
        <path id="e_1_st-2" data-name="e_1_st" d="m155.7,91.602s-5.042-1.777-7.637,1.581" fill="none" stroke="#000" stroke-linecap="round" stroke-linejoin="round" stroke-width="1.5"></path>
        <path id="e_1_st-3" data-name="e_1_st" d="m149.673,114.095s1.512,5.494,8.416,4.575" fill="none" stroke="#000" stroke-linecap="round" stroke-linejoin="round" stroke-width="1.5"></path>
        <path id="e_1_st-4" data-name="e_1_st" d="m174.986,95.071s-3.553-3.548-7.484-1.98" fill="none" stroke="#000" stroke-linecap="round" stroke-linejoin="round" stroke-width="1.5"></path>
        <g id="ha">
          <path id="sk" d="m382.764,98.302c.653-1.328,1.441-3.182,1.171-4.193-.642-2.397-3.053-.807-5.459,1.797l-.04.071c1.665-3.672-1.443-3.518-2.261-2.935-6.692,4.767-13.051,9.013-17.677,12.03l-.124-.006.377-.23c2.437-4.125,3.774-7.955,1.521-8.567-2.448-.665-6.3,5.262-11.718,10.093-5.485,4.891-22.799,18.582-22.799,18.582l25.19,15.724s14.428-10.165,20.149-15.237c9.866-8.748,15.009-14.557,14.732-19.336-.044-.748-.68-2.131-2.563-.553l-.016.018c1.878-2.759,3.084-5.121,3.236-6.017.338-1.996-1.603-3.247-3.719-1.24Z" fill="#fffdfd"></path>
          <path id="st-3" data-name="st" d="m350.946,140.668s14.428-10.165,20.149-15.237c9.866-8.748,15.01-14.557,14.732-19.336-.043-.748-.68-2.131-2.563-.553" fill="none" stroke="#000" stroke-linecap="round" stroke-linejoin="round" stroke-width="1.5"></path>
          <path id="st-4" data-name="st" d="m325.757,124.943s17.313-13.69,22.799-18.582c5.418-4.831,9.27-10.758,11.718-10.093,2.252.612.915,4.442-1.521,8.567" fill="none" stroke="#000" stroke-linecap="round" stroke-linejoin="round" stroke-width="1.5"></path>
          <path id="st-5" data-name="st" d="m372.763,116.36c7.187-4.469,13.363-14.707,13.72-16.819.338-1.997-1.605-3.249-3.722-1.237" fill="none" stroke="#000" stroke-linecap="round" stroke-linejoin="round" stroke-width="1.5"></path>
          <path id="st-6" data-name="st" d="m369.299,112.278c5.917-4.222,10.918-9.052,13.069-13.189.652-1.253,1.897-3.749,1.568-4.98-.642-2.397-3.053-.807-5.459,1.797" fill="none" stroke="#000" stroke-linecap="round" stroke-linejoin="round" stroke-width="1.5"></path>
          <path id="st-7" data-name="st" d="m351.226,109.725s11.845-7.349,24.949-16.683c.839-.597,4.1-.756,2.139,3.211-2.479,5.015-12.767,11.379-12.767,11.379" fill="none" stroke="#000" stroke-linecap="round" stroke-linejoin="round" stroke-width="1.5"></path>
        </g>
        <path id="b" d="m78.595,192.127c-.46,10.16,1.21,103.39,1.21,103.39l120.34-.35-2.15-86.9,32.68,10.76,47.41,14.54.92.29c9.53,2.9,20.24-.46,26.26-9.07l60.72-86.82-33.31-25.24-55.94,68.27s-55.19-18.73-75.02-25.2c-4.68-1.53-11.26-4.14-24.12-4.14l-17.37-.19-15.64,9.318-19.24-9.698-25.59-.28c-40.68-1.42-21.13,40.61-21.16,41.32Z" fill="#fcfcfc" stroke="#000" stroke-linecap="round" stroke-linejoin="round" stroke-width="1.5"></path>
        <g id="ha-2" data-name="ha">
          <path id="sk-2" data-name="sk" d="m80.822,279.454l5.883,2.591,2.917,1.484c6.945-.353,14.609-2.016,15.424.243.485,1.344-2.363,2.941-5.831,4.287,0,0,2.125,1.244,2.583,1.582,9.146,6.745,16.39,18.519,15.491,20.298-.425.841-1.252,1.416-2.536.795-.332-.16-.669-.372-1.006-.607,1.682,2.673,2.634,4.882,1.634,5.864-1.323,1.3-2.733.822-4.179-.489.06.358.038.651-.086.857-1.832,3.039-4.898.151-7.122-2.931-.108-.15-.264-.344-.441-.556.373.827.603,1.5.662,1.894.361,2.432-2.975,2.882-5.025-.29-7.267-11.246-20.94-6.886-40.582-25.45l22.215-9.573Z" fill="#fffdfd" stroke="#000" stroke-linecap="round" stroke-linejoin="round" stroke-width="1.5"></path>
          <path id="st-8" data-name="st" d="m113.628,309.937c-1.241-1.948-2.729-4.222-4.37-6.258-4.856-6.026-6.912-7.903-9.361-9.564" fill="#feffff" stroke="#000" stroke-linecap="round" stroke-linejoin="round" stroke-width="1.5"></path>
          <path id="st-9" data-name="st" d="m97.185,298.612s.989.582,2.781,2.065c3.055,2.528,11.11,12.023,11.268,15.082" fill="#feffff" stroke="#000" stroke-linecap="round" stroke-linejoin="round" stroke-width="1.5"></path>
          <path id="st-10" data-name="st" d="m94.366,302.321s3.17,2.267,4.598,3.735c2.223,2.285,3.921,5.237,4.735,7.149" fill="#feffff" stroke="#000" stroke-linecap="round" stroke-linejoin="round" stroke-width="1.5"></path>
        </g>
        <path id="b-2" data-name="b" d="m64.909,303.243l-54.598-59.696c-.84-.908-1.715-1.99-2.426-3.049-7.42-11.052-4.475-26.025,6.576-33.445l.794-.533,60.924-47.439c11.432-7.675,26.016-4.09,33.69,7.342,7.675,11.432,4.629,22.835-6.802,30.51l-47.363,35.883,35.175,43.722-25.97,26.706Z" fill="#fcfcfc"></path>
        <path id="st-11" data-name="st" d="m78.724,215.169l-23.185,17.318,35.38,44.194-26.011,26.562-54.762-60.024c-.84-.908-1.715-1.99-2.426-3.049-7.42-11.052-4.475-26.025,6.576-33.445l.794-.533,63.684-49.346" fill="none" stroke="#000" stroke-linecap="round" stroke-linejoin="round" stroke-width="1.5"></path>
        <line id="st-12" data-name="st" x1="197.998" y1="208.265" x2="197.998" y2="190.415" fill="#fcfcfc" stroke="#000" stroke-linecap="round" stroke-linejoin="round" stroke-width="1.5"></line>
        <line id="st-13" data-name="st" x1="86.595" y1="209.29" x2="78.724" y2="215.169" fill="none" stroke="#000" stroke-linecap="round" stroke-linejoin="round" stroke-width="1.5"></line>
        <line id="st-14" data-name="st" x1="144.585" y1="160.785" x2="146.124" y2="295.381" fill="#fff" stroke="#000" stroke-linecap="round" stroke-linejoin="round" stroke-width="1.5"></line>
        <polygon id="b-3" data-name="b" points="124.784 143.798 119.903 150.821 134.059 173.757 144.585 160.785 124.784 143.798" fill="#fdfdff" stroke="#000" stroke-linecap="round" stroke-linejoin="round" stroke-width="1.5"></polygon>
        <polygon id="b-4" data-name="b" points="144.585 160.785 155.758 172.579 165.741 151.605 160.767 145.048 144.585 160.785" fill="#fdfdff" stroke="#000" stroke-linecap="round" stroke-linejoin="round" stroke-width="1.5"></polygon>
        <line id="st-15" data-name="st" x1="83.679" y1="267.623" x2="56.314" y2="293.822" fill="none" stroke="#000" stroke-linecap="round" stroke-linejoin="round" stroke-width="1.5"></line>
        <circle id="b-5" data-name="b" cx="83.207" cy="276.156" r="2.5" fill="#fdfdff" stroke="#000" stroke-linecap="round" stroke-linejoin="round" stroke-width="1.5"></circle>
        <line id="st-16" data-name="st" x1="325.321" y1="121.888" x2="359.274" y2="147.562" fill="none" stroke="#000" stroke-linecap="round" stroke-linejoin="round" stroke-width="1.5"></line>
        <circle id="b-6" data-name="b" cx="333.862" cy="120.787" r="2.5" fill="#fdfdff" stroke="#000" stroke-linecap="round" stroke-linejoin="round" stroke-width="1.5"></circle>
      </g>
    </g>
  </g>
</svg>